<?xml version="1.0" encoding="utf-8"?>
<!-- Generator: Adobe Illustrator 19.0.0, SVG Export Plug-In . SVG Version: 6.00 Build 0)  -->
<svg version="1.1" id="Camada_1" xmlns="http://www.w3.org/2000/svg" xmlns:xlink="http://www.w3.org/1999/xlink" x="0px" y="0px"
	 viewBox="-103 210.5 403.5 373.5" style="enable-background:new -103 210.5 403.5 373.5;" xml:space="preserve">
<style type="text/css">
	.st0{fill:#678998;}
	.st1{fill:#FFFFFF;}
	.st2{fill:#624533;}
	.st3{fill:#678998;stroke:#523E37;stroke-linejoin:round;stroke-miterlimit:10;}
	.st4{fill:#DAA1A3;stroke:#DAA1A3;stroke-linejoin:round;stroke-miterlimit:10;}
	.st5{fill:#DCC6CA;}
	.st6{opacity:0.3;}
	.st7{fill:#604433;}
	.st8{opacity:0.5;}
	.st9{fill:#A8C1C6;}
	.st10{opacity:0.57;fill:#D3827A;enable-background:new    ;}
</style>
<g id="XMLID_1238_">
	
		<image style="overflow:visible;enable-background:new    ;" width="1142" height="200" id="XMLID_1239_" xlink:href="161CEC3E.jpeg"  transform="matrix(0.2392 0 0 0.2352 -25.4612 480.4702)">
	</image>
</g>
<circle id="XMLID_1017_" class="st0" cx="107.5" cy="400.2" r="177.9"/>
<g id="XMLID_950_">
	<g id="XMLID_951_">
		<path id="XMLID_1232_" class="st1" d="M-40.4,545.4c-4.2,0-7.9-3-8.7-7.2l-0.2-0.9l-7.9-56.4c-0.4-2.4,0.1-4.7,1.5-6.7
			s3.6-3.3,6-3.6c12.9-1.8,26.7-3.2,43.3-4.4c14.3-1,29.6-1.7,46.8-2.2c16-0.4,32.7-0.6,49.7-0.6c32,0,65.5,0.7,105.3,2.2
			c26.6,1,51.3,2.3,75.5,3.8c2.4,0.1,4.5,1.2,6.1,3s2.3,4.1,2.2,6.5l-2.3,56.9v0.6c-0.3,4.6-4.2,8.2-8.8,8.2c-0.2,0-0.4,0-0.6,0
			c-23.3-1.5-48.2-2.7-73.9-3.7c-38.3-1.5-72-2.2-102.9-2.2c-16.4,0-32.4,0.2-47.7,0.6c-16.3,0.5-30.7,1.1-44,2
			c-14.6,1-27.1,2.3-38.2,3.8C-39.5,545.4-39.9,545.4-40.4,545.4z"/>
		<path id="XMLID_1229_" class="st2" d="M90.2,467.5c35.2,0,70.2,0.9,105.2,2.2c25.2,1,50.2,2.2,75.4,3.8c2.7,0.2,4.7,2.5,4.5,5.2
			v0.1l-2.3,56.8v0.6c-0.2,2.5-2.3,4.5-4.8,4.5c-0.1,0-0.2,0-0.3,0c-24.6-1.5-49.3-2.8-74-3.7c-34.3-1.3-68.7-2.2-103-2.2
			c-16,0-31.9,0.2-47.8,0.6c-14.8,0.4-29.6,1.1-44.2,2c-13,0.9-26,2.1-38.5,3.9c-0.2,0-0.5,0-0.7,0c-2.3,0-4.3-1.6-4.8-3.9l-0.2-0.8
			l-7.9-56.4c-0.5-2.7,1.4-5.3,4.1-5.7c14.7-2.1,28.9-3.4,43-4.4c15.7-1.1,31.2-1.7,46.6-2.2C57.2,467.7,73.7,467.5,90.2,467.5
			 M90.2,459.5c-17,0-33.8,0.2-49.7,0.6c-17.3,0.5-32.6,1.2-47,2.2c-16.7,1.2-30.6,2.6-43.6,4.4c-3.5,0.5-6.6,2.4-8.7,5.3
			c-2,2.8-2.8,6.3-2.2,9.6l7.8,56.2v0.2v0.2l0.2,0.8c1.2,6,6.5,10.4,12.6,10.4c0.6,0,1.2,0,1.8-0.1c11.1-1.6,23.5-2.8,38-3.8
			c13.3-0.9,27.6-1.6,43.9-2c15.2-0.4,31.2-0.6,47.6-0.6c30.8,0,64.4,0.7,102.7,2.2c25.7,1,50.5,2.3,73.8,3.7c0.3,0,0.5,0,0.8,0
			c6.7,0,12.3-5.2,12.8-11.9v-0.6v-0.1v-0.1l2.3-56.7l0,0c0.2-3.4-0.9-6.8-3.1-9.4c-2.3-2.6-5.4-4.1-8.9-4.4
			c-24.2-1.5-49-2.8-75.6-3.8C155.7,460.2,122.2,459.5,90.2,459.5L90.2,459.5z"/>
	</g>
</g>
<g id="XMLID_952_">
	<g id="XMLID_1253_">
		<path id="XMLID_1264_" class="st3" d="M-5.6,518.2l-8-25.9v28c0,1.6-0.4,2.7-1.3,3.5c-0.9,0.8-2,1.2-3.4,1.2s-2.5-0.4-3.3-1.2
			c-0.9-0.8-1.3-1.9-1.3-3.5v-32.2c0-1.8,0.6-3,1.7-3.6s2.7-0.9,4.6-0.9h3.1c1.9,0,3.3,0.1,4.1,0.4c0.9,0.3,1.5,0.8,1.9,1.5
			s0.9,1.9,1.4,3.5l7.3,22.3L8.5,489c0.5-1.6,1-2.8,1.4-3.5s1-1.2,1.9-1.5s2.2-0.4,4.1-0.4H19c1.9,0,3.5,0.3,4.6,0.9
			s1.7,1.8,1.7,3.6v32.2c0,1.6-0.4,2.7-1.3,3.5c-0.9,0.8-2,1.2-3.4,1.2c-1.3,0-2.4-0.4-3.3-1.2c-0.9-0.8-1.3-1.9-1.3-3.5v-28
			l-8,25.9c-0.5,1.7-1,2.9-1.3,3.7c-0.3,0.8-0.9,1.5-1.8,2.1c-0.9,0.6-2.1,1-3.7,1c-1.2,0-2.2-0.2-3-0.6s-1.5-0.9-1.9-1.6
			c-0.5-0.6-0.8-1.4-1.1-2.1C-5.1,519.8-5.3,519-5.6,518.2z"/>
		<path id="XMLID_1262_" class="st3" d="M52.6,520v-32c0-1.7,0.5-2.9,1.4-3.7c0.9-0.8,2.1-1.2,3.6-1.2s2.8,0.4,3.7,1.2
			c0.9,0.8,1.4,2.1,1.4,3.8v32c0,1.7-0.5,2.9-1.4,3.8c-0.9,0.8-2.2,1.2-3.7,1.2s-2.7-0.4-3.6-1.3C53,522.9,52.6,521.6,52.6,520z"/>
		<path id="XMLID_1260_" class="st3" d="M107.3,518.2l-8-25.9v28c0,1.6-0.4,2.7-1.3,3.5c-0.9,0.8-2,1.2-3.4,1.2s-2.5-0.4-3.3-1.2
			c-0.9-0.8-1.3-1.9-1.3-3.5v-32.2c0-1.8,0.6-3,1.7-3.6s2.7-0.9,4.6-0.9h3.1c1.9,0,3.3,0.1,4.1,0.4c0.9,0.3,1.5,0.8,1.9,1.5
			s0.9,1.9,1.4,3.5l7.3,22.3l7.3-22.3c0.5-1.6,1-2.8,1.4-3.5s1-1.2,1.9-1.5s2.2-0.4,4.1-0.4h3.1c1.9,0,3.5,0.3,4.6,0.9
			s1.7,1.8,1.7,3.6v32.2c0,1.6-0.4,2.7-1.3,3.5c-0.9,0.8-2,1.2-3.4,1.2c-1.3,0-2.4-0.4-3.3-1.2c-0.9-0.8-1.3-1.9-1.3-3.5v-28
			l-8,25.9c-0.5,1.7-1,2.9-1.3,3.7c-0.3,0.8-0.9,1.5-1.8,2.1c-0.9,0.6-2.1,1-3.7,1c-1.2,0-2.2-0.2-3-0.6s-1.5-0.9-1.9-1.6
			c-0.5-0.6-0.8-1.4-1.1-2.1C107.9,519.8,107.6,519,107.3,518.2z"/>
		<path id="XMLID_1258_" class="st3" d="M165.5,520v-32c0-1.7,0.5-2.9,1.4-3.7c0.9-0.8,2.1-1.2,3.6-1.2s2.8,0.4,3.7,1.2
			c0.9,0.8,1.4,2.1,1.4,3.8v32c0,1.7-0.5,2.9-1.4,3.8c-0.9,0.8-2.2,1.2-3.7,1.2s-2.7-0.4-3.6-1.3S165.5,521.6,165.5,520z"/>
		<path id="XMLID_1255_" class="st3" d="M217,506.9h-3.6V520c0,1.7-0.5,3-1.4,3.8s-2.2,1.2-3.7,1.2c-1.6,0-2.9-0.4-3.8-1.3
			c-0.9-0.8-1.3-2.1-1.3-3.7v-31.3c0-1.8,0.5-3.1,1.5-3.9s2.6-1.2,4.7-1.2H226c2.3,0,4.2,0.1,5.8,0.2c1.6,0.2,3.1,0.5,4.4,1
			c1.6,0.5,3,1.3,4.2,2.3s2.1,2.2,2.8,3.5c0.6,1.3,0.9,2.7,0.9,4.2c0,3-1.1,5.5-3.2,7.3s-5.3,3.1-9.6,3.9c1.8,0.8,3.5,1.9,5.2,3.4
			c1.6,1.5,3.1,3.1,4.4,4.8c1.3,1.7,2.3,3.3,3,4.6c0.7,1.4,1.1,2.3,1.1,2.8s-0.2,1.1-0.6,1.6s-1,0.9-1.7,1.2
			c-0.7,0.3-1.6,0.5-2.5,0.5c-1.1,0-2.1-0.2-2.9-0.7c-0.8-0.4-1.4-1-2-1.6c-0.6-0.7-1.3-1.6-2.3-2.9l-4.1-5.5
			c-1.5-2-2.8-3.5-3.9-4.6c-1.2-1.1-2.3-1.8-3.5-2.2C220.3,507.1,218.8,506.9,217,506.9z M222.8,489.8h-9.4V501h9.1
			c2.4,0,4.5-0.2,6.1-0.5c1.7-0.3,2.9-0.9,3.8-1.7c0.9-0.8,1.3-2,1.3-3.4c0-1.1-0.4-2.1-1.1-3s-1.7-1.5-2.9-1.9
			C228.6,490,226.3,489.8,222.8,489.8z"/>
	</g>
	<g id="XMLID_1240_">
		<path id="XMLID_1251_" class="st4" d="M-5.6,518.2l-8-25.9v28c0,1.6-0.4,2.7-1.3,3.5c-0.9,0.8-2,1.2-3.4,1.2s-2.5-0.4-3.3-1.2
			c-0.9-0.8-1.3-1.9-1.3-3.5v-32.2c0-1.8,0.6-3,1.7-3.6s2.7-0.9,4.6-0.9h3.1c1.9,0,3.3,0.1,4.1,0.4c0.9,0.3,1.5,0.8,1.9,1.5
			s0.9,1.9,1.4,3.5l7.3,22.3L8.5,489c0.5-1.6,1-2.8,1.4-3.5s1-1.2,1.9-1.5s2.2-0.4,4.1-0.4H19c1.9,0,3.5,0.3,4.6,0.9
			s1.7,1.8,1.7,3.6v32.2c0,1.6-0.4,2.7-1.3,3.5c-0.9,0.8-2,1.2-3.4,1.2c-1.3,0-2.4-0.4-3.3-1.2c-0.9-0.8-1.3-1.9-1.3-3.5v-28
			l-8,25.9c-0.5,1.7-1,2.9-1.3,3.7c-0.3,0.8-0.9,1.5-1.8,2.1c-0.9,0.6-2.1,1-3.7,1c-1.2,0-2.2-0.2-3-0.6s-1.5-0.9-1.9-1.6
			c-0.5-0.6-0.8-1.4-1.1-2.1C-5.1,519.8-5.3,519-5.6,518.2z"/>
		<path id="XMLID_1249_" class="st4" d="M52.6,520v-32c0-1.7,0.5-2.9,1.4-3.7c0.9-0.8,2.1-1.2,3.6-1.2s2.8,0.4,3.7,1.2
			c0.9,0.8,1.4,2.1,1.4,3.8v32c0,1.7-0.5,2.9-1.4,3.8c-0.9,0.8-2.2,1.2-3.7,1.2s-2.7-0.4-3.6-1.3C53,522.9,52.6,521.6,52.6,520z"/>
		<path id="XMLID_1247_" class="st4" d="M107.3,518.2l-8-25.9v28c0,1.6-0.4,2.7-1.3,3.5c-0.9,0.8-2,1.2-3.4,1.2s-2.5-0.4-3.3-1.2
			c-0.9-0.8-1.3-1.9-1.3-3.5v-32.2c0-1.8,0.6-3,1.7-3.6s2.7-0.9,4.6-0.9h3.1c1.9,0,3.3,0.1,4.1,0.4c0.9,0.3,1.5,0.8,1.9,1.5
			s0.9,1.9,1.4,3.5l7.3,22.3l7.3-22.3c0.5-1.6,1-2.8,1.4-3.5s1-1.2,1.9-1.5s2.2-0.4,4.1-0.4h3.1c1.9,0,3.5,0.3,4.6,0.9
			s1.7,1.8,1.7,3.6v32.2c0,1.6-0.4,2.7-1.3,3.5c-0.9,0.8-2,1.2-3.4,1.2c-1.3,0-2.4-0.4-3.3-1.2c-0.9-0.8-1.3-1.9-1.3-3.5v-28
			l-8,25.9c-0.5,1.7-1,2.9-1.3,3.7c-0.3,0.8-0.9,1.5-1.8,2.1c-0.9,0.6-2.1,1-3.7,1c-1.2,0-2.2-0.2-3-0.6s-1.5-0.9-1.9-1.6
			c-0.5-0.6-0.8-1.4-1.1-2.1C107.9,519.8,107.6,519,107.3,518.2z"/>
		<path id="XMLID_1245_" class="st4" d="M165.5,520v-32c0-1.7,0.5-2.9,1.4-3.7c0.9-0.8,2.1-1.2,3.6-1.2s2.8,0.4,3.7,1.2
			c0.9,0.8,1.4,2.1,1.4,3.8v32c0,1.7-0.5,2.9-1.4,3.8c-0.9,0.8-2.2,1.2-3.7,1.2s-2.7-0.4-3.6-1.3S165.5,521.6,165.5,520z"/>
		<path id="XMLID_1242_" class="st4" d="M217,506.9h-3.6V520c0,1.7-0.5,3-1.4,3.8s-2.2,1.2-3.7,1.2c-1.6,0-2.9-0.4-3.8-1.3
			c-0.9-0.8-1.3-2.1-1.3-3.7v-31.3c0-1.8,0.5-3.1,1.5-3.9s2.6-1.2,4.7-1.2H226c2.3,0,4.2,0.1,5.8,0.2c1.6,0.2,3.1,0.5,4.4,1
			c1.6,0.5,3,1.3,4.2,2.3s2.1,2.2,2.8,3.5c0.6,1.3,0.9,2.7,0.9,4.2c0,3-1.1,5.5-3.2,7.3s-5.3,3.1-9.6,3.9c1.8,0.8,3.5,1.9,5.2,3.4
			c1.6,1.5,3.1,3.1,4.4,4.8c1.3,1.7,2.3,3.3,3,4.6c0.7,1.4,1.1,2.3,1.1,2.8s-0.2,1.1-0.6,1.6s-1,0.9-1.7,1.2
			c-0.7,0.3-1.6,0.5-2.5,0.5c-1.1,0-2.1-0.2-2.9-0.7c-0.8-0.4-1.4-1-2-1.6c-0.6-0.7-1.3-1.6-2.3-2.9l-4.1-5.5
			c-1.5-2-2.8-3.5-3.9-4.6c-1.2-1.1-2.3-1.8-3.5-2.2C220.3,507.1,218.8,506.9,217,506.9z M222.8,489.8h-9.4V501h9.1
			c2.4,0,4.5-0.2,6.1-0.5c1.7-0.3,2.9-0.9,3.8-1.7c0.9-0.8,1.3-2,1.3-3.4c0-1.1-0.4-2.1-1.1-3s-1.7-1.5-2.9-1.9
			C228.6,490,226.3,489.8,222.8,489.8z"/>
	</g>
</g>
<g id="XMLID_1018_">
	<g id="XMLID_1021_">
		<g id="XMLID_1100_">
			<g id="XMLID_1107_">
				<path id="XMLID_1016_" class="st5" d="M265.7,354.9c1.6,3,2.3,6.2,2.3,9.4c-0.1,7-3.9,13.7-10.5,17.2
					c-9.6,5.1-21.5,1.4-26.6-8.2c-4.6-8.8-2-19.5,5.8-25.1c0.7-0.5,1.5-1,2.4-1.5C248.7,341.6,260.7,345.3,265.7,354.9z"/>
			</g>
			<g id="XMLID_1105_" class="st6">
				<path id="XMLID_1015_" class="st7" d="M268,364.2c-0.1,7.3-4.3,14.4-11.5,17.7c-9,4.1-19.9,0.8-25-7.7
					c-5.4-8.9-2.8-20.2,5.3-26.1c2,3.4,4.2,7.5,6,11.9c3.4,8.5,13.8,11.9,21.5,7C265.5,366.2,266.8,365.2,268,364.2z"/>
			</g>
			<g id="XMLID_1101_">
				<path id="XMLID_1102_" class="st7" d="M248.4,386.1c-7.9,0-15.6-4.3-19.5-11.7c-5.7-10.7-1.6-24.1,9.2-29.8
					c5.2-2.8,11.2-3.3,16.8-1.6c5.6,1.7,10.2,5.5,13,10.7c5.7,10.7,1.6,24.1-9.2,29.8C255.4,385.3,251.8,386.1,248.4,386.1z
					 M248.3,346.7c-2.8,0-5.5,0.7-8.1,2c-8.4,4.5-11.7,15-7.2,23.4c4.5,8.4,15,11.7,23.4,7.2s11.7-15,7.2-23.4l0,0
					c-2.2-4.1-5.8-7.1-10.2-8.5C251.8,347,250,346.7,248.3,346.7z"/>
			</g>
		</g>
		<g id="XMLID_1085_">
			<g id="XMLID_1098_">
				<path id="XMLID_1012_" class="st5" d="M250,463H54c0,0-4.1-26.4,1.4-56.7c6.6-37,27.4-79.7,87-87.4
					c108.4-14,103.8,89.2,103.8,89.2c4.8,0,9,0.6,12.6,1.6c8.8,2.5,14,7.7,16.9,13.9C284.1,442,270.2,463,250,463z"/>
			</g>
			<g id="XMLID_1094_" class="st8">
				<path id="XMLID_1010_" class="st1" d="M55.3,412.9c6.6-37,27.4-79.7,87-87.4c108.3-14,103.7,89.2,103.7,89.2
					c4.8,0,9,0.6,12.6,1.6c8.8,2.5,14,7.7,16.9,13.9c1.3,2.7,2,5.5,2.4,8.3c0.6-4.8-0.1-9.9-2.4-14.7c-2.9-6.2-8.1-11.4-16.9-13.9
					c-3.6-1-7.7-1.6-12.6-1.6c0,0,4.6-103.2-103.8-89.2c-59.6,7.7-80.3,50.5-87,87.4c-2.4,13.5-3,26.3-2.8,36.3
					C52.6,433.9,53.4,423.6,55.3,412.9z"/>
			</g>
			<g id="XMLID_1090_">
				<path id="XMLID_1091_" class="st7" d="M250,465.4H54c-1.2,0-2.1-0.8-2.3-2c-0.1-0.7-2.5-16.7-1-38.4c1.4-20,6.7-48.7,23.8-71.4
					c15.6-20.8,38.3-33.2,67.5-37c33.7-4.4,60.2,2,78.7,19c15.4,14.2,22.1,33.2,25.1,46.6c2.3,10.7,2.7,19.5,2.7,23.6
					c14.5,0.5,24.3,6.2,29.3,16.8c4.3,9.2,3.6,19.9-1.9,28.5C270.1,460.1,260.5,465.4,250,465.4z M56,460.7h194
					c8.9,0,17-4.5,21.8-12c4.6-7.3,5.2-16.3,1.6-24c-4.4-9.4-13.6-14.1-27.4-14.1c-0.6,0-1.3-0.3-1.7-0.7c-0.4-0.5-0.7-1.1-0.7-1.7
					c0-0.4,1.6-43.4-26.3-69c-17.4-16-42.6-22-74.8-17.8c-27.9,3.6-49.5,15.4-64.4,35.1C49.9,394,54.7,449.5,56,460.7z"/>
			</g>
			<g id="XMLID_1088_">
				<path id="XMLID_1007_" class="st7" d="M248.4,408.4c-0.1,0.8-0.3,1.5-0.4,2.2c-0.2,0.7-0.4,1.4-0.6,2.2
					c-0.2,0.7-0.5,1.4-0.8,2.1c-0.3,0.7-0.6,1.4-1,2.1c-0.2,0.4-0.7,0.5-1.1,0.3c-0.2-0.1-0.4-0.4-0.4-0.6l0,0
					c-0.1-0.7-0.1-1.5-0.1-2.2l-0.1-2.1c0-0.7-0.1-1.4-0.1-2.1s-0.1-1.4-0.1-2.1c0-1.3,1-2.4,2.3-2.4s2.4,1,2.4,2.3
					C248.4,408.1,248.4,408.2,248.4,408.4L248.4,408.4z"/>
			</g>
			<g id="XMLID_1086_">
				<path id="XMLID_1006_" class="st7" d="M187.1,460.8c0.2-0.1,0.6-0.3,1-0.4c0.4-0.2,0.7-0.4,1.1-0.6c0.4-0.2,0.7-0.4,1-0.7
					c0.3-0.2,0.7-0.5,1-0.8c0.7-0.5,1.2-1.1,1.8-1.7c0.5-0.7,1.1-1.3,1.6-2c2-2.7,3.3-6,4-9.4l0.1-0.6c0-0.2,0.1-0.4,0.1-0.7
					l0.2-1.3c0.1-0.4,0.1-0.9,0.2-1.3l0.1-1.3c0.1-1.8,0.1-3.6,0-5.3c-0.2-1.8-0.4-3.5-0.9-5.2s-1.1-3.3-1.9-4.8
					c-1.6-3-4-5.6-6.9-7.5c-1.4-1-3-1.8-4.6-2.6c-1.6-0.7-3.3-1.4-5.1-1.9c-3.5-1.1-7.1-1.7-10.8-2.3c-3.7-0.6-7.4-1.2-11.2-1.9
					c-0.1,0-0.2-0.1-0.2-0.2c0-0.1,0.1-0.1,0.2-0.2c7.6-1.5,15.4-1.1,23.1,0.9c1.9,0.5,3.8,1.1,5.7,1.9c1.9,0.8,3.7,1.7,5.4,2.8
					c3.5,2.2,6.5,5.2,8.6,8.9c1,1.8,1.9,3.7,2.4,5.7c0.6,2,0.9,4,1.1,6s0.2,4,0.1,6l-0.1,1.5c0,0.5-0.1,1-0.2,1.5l-0.2,1.5
					c0,0.3-0.1,0.5-0.1,0.8l-0.2,0.7c-1.5,8-6.4,15.9-15,19.1c-1.2,0.4-2.6-0.2-3-1.4s0.2-2.5,1.4-3L187.1,460.8z"/>
			</g>
		</g>
		<g id="XMLID_1022_">
			<g id="XMLID_1070_">
				<g id="XMLID_1083_">
					<path id="XMLID_1005_" class="st5" d="M21.1,342c1.7,26.2-14.9,49.8-39.1,57.8c-3.5,1.1-7.1,2-10.8,2.4
						c-11.5,1.4-22.6-0.7-32.2-5.5v1.5c0,2.5-2.5,4.2-4.8,3.2c-4.9-2-12-6.9-14.6-19.4c0-0.1-0.2-0.1-0.2,0c0,0,0,0.1,0,0.2
						c0,1.6-1.2,2.5-2.4,2.6c-0.2,0-0.3,0-0.5,0c-0.8-0.1-1.6-0.5-2.2-1.2c-5.8-7.3-8.9-16.9-8.7-31c0.5-31.5,23-61.2,54.4-63.7
						c15.8-1.2,30.5,4.1,41.6,13.7C12.6,312.1,20.1,326,21.1,342z"/>
				</g>
				<g id="XMLID_1081_">
					<circle id="XMLID_1004_" class="st9" cx="-37" cy="345.7" r="37.1"/>
				</g>
				<g id="XMLID_1079_" class="st8">
					<path id="XMLID_1003_" class="st1" d="M18.4,327.8c-8-24.4-31.8-41.1-58.6-39c-31.3,2.5-53.9,32.3-54.3,63.7
						c-0.1,10,1.4,17.8,4.4,24.1c-1.6-5.2-2.4-11.2-2.3-18.5c0.4-24.4,14-47.7,34.6-58.1c2.4,1.2,7.3,1.4,12.7,0.2
						c5.8-1.3,10.5-3.7,11.8-5.9C-10.5,294.4,9.4,307.9,18.4,327.8z"/>
				</g>
				<g id="XMLID_1077_" class="st6">
					<path id="XMLID_1002_" class="st7" d="M1.4,302.5c0,0-10.3,4.6-18.1,12.2l0,0c-6.1-4-13.4-6.3-21.1-6.1
						c-8.1,0.2-15.4,2.9-21.3,7.3c2.8-0.9,5.6-1.5,8.7-1.7c0.1,0,0.3,0,0.4,0c6.4-0.4,11.9,1.9,15.9,5.8c2.8,2.7,3.4,6.9,1.6,10.3
						c0,0,0,0,0,0.1c-0.9,1.6-2.2,2.9-3.9,3.8c-5.6,2.8-13.2,13.5-21.2,33.6c0,0-3.8,9.2-2,16.4c0.3,1.2-3.1-0.1-4.1-0.7
						c-1.5-1-3.4-2.5-4.7-4.5c-0.9-1.2-2.8-0.8-3,0.7c-0.1,1-0.2,2.2-0.1,3.4c0.1,0.9-1.1,1.3-1.6,0.7c-1.8-2.1-4.6-5.6-6.8-9.3
						c-1.4-2.3-5-1.3-4.9,1.4c0,2.8,0.3,5.9,1.2,9c0.2,0,0.3,0,0.5,0c1.3-0.1,2.4-1,2.4-2.6c0-0.1,0-0.1,0-0.2
						c0-0.1,0.1-0.1,0.1-0.1s0.1,0,0.1,0.1c1.1,5.3,3,9.2,5.2,12.1c3,4,6.6,6.1,9.4,7.3c0.6,0.2,1.1,0.3,1.7,0.2l0,0
						c0.1,0,0.2,0,0.3-0.1h0.1c1.5-0.4,2.7-1.7,2.7-3.4v-0.7v-0.7c2,1,4,1.9,6.1,2.6c8.1,2.9,16.9,4,26.1,2.9
						c1.8-0.2,3.5-0.5,5.2-0.9c1.9-0.4,3.8-0.9,5.6-1.5C6,392,22.7,368.4,21,342.1C20.1,326,12.6,312.1,1.4,302.5z"/>
				</g>
				<g id="XMLID_1073_">
					<path id="XMLID_1074_" class="st7" d="M-35.8,404.9c-8,0-15.9-1.6-23.3-4.8c-0.4,1.1-1.2,2.1-2.2,2.8c-1.6,1.1-3.7,1.3-5.5,0.6
						c-4.2-1.7-11.3-6-14.9-16.7l0,0c-2.1,0.7-4.5-0.1-6-1.9c-6.5-8.2-9.4-18.5-9.2-32.5c0.2-16.1,6-31.8,16.1-44.2
						c10.6-12.8,25-20.5,40.4-21.7c15.9-1.3,31.4,3.8,43.5,14.3s19.3,25,20.3,41c1,15.1-3.9,29.9-13.6,41.6s-23.4,19.2-38.4,21
						C-31,404.8-33.4,404.9-35.8,404.9z M-61.1,394.3c0.4,0,0.7,0.1,1,0.2c9.5,4.7,20.2,6.6,30.9,5.3c28.7-3.5,49.7-28.8,47.9-57.7
						C17.8,327.4,11.1,314,0,304.3c-11.1-9.6-25.3-14.3-40-13.2c-28.8,2.3-51.7,29.2-52.2,61.4c-0.2,12.8,2.4,22.1,8.2,29.5
						c0.3,0.4,0.6,0.4,0.8,0.4c0,0,0.1,0,0.1-0.3V382c0-1.3,1-2.3,2.2-2.4c1.3-0.1,2.4,0.7,2.7,1.9c2.4,11.2,8.5,15.8,13.2,17.6
						c0.5,0.2,1,0,1.1-0.1c0.2-0.1,0.5-0.4,0.5-0.9v-1.5c0-0.8,0.4-1.6,1.1-2C-61.9,394.4-61.5,394.3-61.1,394.3z"/>
				</g>
				<g id="XMLID_1071_">
					<path id="XMLID_999_" class="st7" d="M-58.7,315.6c3.7-4.6,9.4-7.5,15.3-8.6s12.1-0.7,18,1c5.8,1.7,11.3,4.8,15.7,9
						c2.2,2.1,4.2,4.4,5.9,7c1.7,2.5,3.1,5.3,4.1,8.1c2.1,5.7,2.8,12,2.2,18c-0.2,1.5-0.4,3-0.8,4.5s-0.8,3-1.3,4.4
						c-1,2.9-2.4,5.6-4.1,8.2c-1.7,2.6-3.6,4.9-5.8,7c-2.2,2.1-4.7,3.9-7.3,5.4c-5.2,3.1-11.2,4.8-17.2,5.1l-0.3-4
						c2.7-0.3,5.3-0.9,7.9-1.8c2.5-0.9,5-2,7.2-3.4c2.3-1.4,4.4-3.1,6.3-4.9c1.9-1.9,3.5-4,5-6.2c2.8-4.5,4.6-9.6,5.2-14.9
						s-0.1-10.7-1.9-15.6c-1.8-5-4.8-9.5-8.6-13.2c-3.9-3.7-8.5-6.5-13.6-8.1c-2.5-0.8-5.2-1.4-7.8-1.6c-2.7-0.2-5.4-0.1-8,0.3
						c-2.7,0.4-5.3,0.9-7.9,1.7C-53.3,313.6-55.9,314.6-58.7,315.6z"/>
				</g>
			</g>
			<g id="XMLID_1023_">
				<g id="XMLID_1068_">
					<path id="XMLID_998_" class="st5" d="M148.1,370.8c0.7,4.2,1.5,11.3-0.6,13.1c-1.1,1-3.1,0.4-6.4-2.9c0,0-3.8,31.1-12.5,14.5
						c0,0-6.3,4.7-9.7,6.6c0,0,12.3,10.3,9,22.8c0,0-4.8,2.3-9.4-3.9c0.3,0.6,8.4,16,0,23.9c0,0-4.7,0.9-10-8.1
						c0,0-3.9,26.2-48.5,26.2h-76.5c-6,0-12-1.3-17.4-3.9c-6.1-2.9-12.8-8.1-16.5-17.1c0,0-1.3,7.6-6.7,6.2
						c-5.4-1.5-6.4-16.3-1.8-26.2c0,0-13.1-1.6,3.9-20.7c0,0-1.9-44,39.7-76.4c2.6-2.1,5.4-4.1,8.4-6l0,0c-0.3-0.2-4.3-3.3-4.3-5.7
						c-0.2-4.7,11.3-4.2,20,0.5c-0.3-0.3-5.4-4.5-7.1-10.3c-0.7-2.5,1.3-5,3.9-4.7c6,0.6,17.1,3,26.8,12.3c5.2-1,10.4,0.4,10.4,0.4
						c11.1-13.9,28.3-22.8,47.5-22.7c32.7,0.2,59.6,26.8,60,59.6c0.1,5.6-0.6,11-2,16.2C147.8,366.5,147.8,368.7,148.1,370.8z"/>
				</g>
				<g id="XMLID_1066_">
					<ellipse id="XMLID_997_" class="st9" cx="3.2" cy="435.9" rx="25.1" ry="22.2"/>
				</g>
				<g id="XMLID_1064_">
					<path id="XMLID_996_" class="st9" d="M-21.3,387.1c0-2.6-0.5-5.8-2.5-8.3c-3.2-4.1-9.8-2.9-11.1,2c-0.5,2,0,4.1,3.1,5.7
						c4.8,2.5,6.4,2.3,7.5,2.6C-22.8,389.7-21.3,388.7-21.3,387.1z"/>
				</g>
				<g id="XMLID_1062_">
					<path id="XMLID_986_" class="st9" d="M29.9,383.5c0.6-2.7,1.9-6.1,4.6-8.3c4.3-3.6,11.2-0.9,11.5,4.8c0.1,2.3-0.9,4.4-4.7,5.4
						c-5.8,1.5-7.4,0.9-8.7,1.1C30.9,386.6,29.5,385.1,29.9,383.5z"/>
				</g>
				<g id="XMLID_1060_" class="st6">
					<path id="XMLID_985_" class="st7" d="M25.7,411.3c-2.4-13.7-10.3-20.8-15.8-24.1c-3.4-2.1-7.7-2-11.1,0.3
						c-6.4,4.3-16.3,14-16.1,32.2c0.1,5.3,2,10.5,5.7,14.3c1.2,1.2,2.6,2.3,4.2,3.3c1.4,0.8,2.5,2,3.1,3.6c0.8,2.1,2.3,5.4,4.3,7.5
						c1,1.1,2.8,0.6,3.3-0.8c0.5-1.5,1.4-3.6,2.6-5.3c1.2-1.7,3-2.8,5.1-3.2C22.2,436.8,28.8,429.1,25.7,411.3z"/>
				</g>
				<g id="XMLID_1058_" class="st6">
					<path id="XMLID_984_" class="st7" d="M19.9,322.6c-0.2,0.4-7.3,16.4-35.3,2.4c2.6-2.1,5.4-4.1,8.4-6
						C-6.9,319,5.1,329.5,19.9,322.6z"/>
				</g>
				<g id="XMLID_1056_" class="st8">
					<path id="XMLID_983_" class="st1" d="M-2,322.1c0,0-2.3-1.2-4.9-3.1c0,0-44.2,22.3-48.1,82.4c0,0,6.7-28.1,26.3-53.8
						c2.2,0.7,6.1-1.3,9.3-4.9c3.1-3.5,4.5-7.5,3.7-9.6C-11.6,329.1-7,325.4-2,322.1z"/>
				</g>
				<g id="XMLID_1052_">
					<path id="XMLID_1053_" class="st7" d="M60,465.4h-76.5c-6.5,0-12.9-1.4-18.5-4.1c-6.7-3.2-11.8-7.8-15.3-13.6
						c-0.6,0.8-1.3,1.5-2.2,2.1c-1.6,1-3.4,1.3-5.4,0.7c-1.3-0.4-3.2-1.4-4.6-4.4c-2.6-5.5-2.4-15.1,0.3-22.6
						c-1.4-0.7-2.8-2-3.6-3.9c-1.7-4.5,1-10.8,8.2-19c0-3.3,0.4-14.6,5.4-28.9c5.2-14.9,16.6-36,41.3-52.9c-1.4-1.4-2.8-3.4-2.9-5.3
						c-0.1-1.8,0.8-3.4,2.4-4.4c2.8-1.8,7.7-1.7,12.5-0.5c-0.8-1.3-1.4-2.8-1.9-4.4c-0.6-1.9-0.1-4,1.2-5.6c1.3-1.5,3.2-2.3,5.2-2.1
						c5.9,0.6,17.2,2.9,27.4,12.2c3.5-0.5,6.9,0,8.7,0.3c12-14.3,29.4-22.5,48.1-22.5c0.1,0,0.2,0,0.4,0c33.9,0.2,61.9,28,62.4,61.9
						c0.1,5.7-0.6,11.3-2,16.8c-0.4,1.7-0.5,3.5-0.2,5.3c2.1,12.1-0.3,14.8-2.2,15.8c-1.8,0.9-3.7,0.4-5.4-0.7
						c-1.2,6.8-3.7,16.2-8.6,17.1c-2.9,0.5-5-1.7-6.4-3.7c-1.4,1-3.4,2.4-5.2,3.6c3.7,3.9,10.2,12.7,7.5,22.9
						c-0.2,0.7-0.6,1.2-1.3,1.5c-0.2,0.1-2.4,1.1-5.4,0.4c1.6,5.9,2.3,13.9-3.4,19.3c-0.3,0.3-0.7,0.5-1.2,0.6s-4.7,0.7-9.6-5.2
						c-1.2,2.7-3.2,6.1-6.6,9.6C96.3,457.9,83.8,465.4,60,465.4z M-50.4,439.7c0.9,0,1.8,0.6,2.2,1.4c2.9,7,8.1,12.4,15.4,15.9
						c5,2.4,10.6,3.6,16.4,3.6H60c42.1,0,46.2-24,46.2-24.2c0.1-1,0.9-1.8,1.9-2s2,0.3,2.5,1.1c3.1,5.3,5.8,6.6,7,6.8
						c6-7-1.1-20.3-1.1-20.4c-0.6-1.1-0.2-2.4,0.8-3.1c1-0.7,2.4-0.4,3.1,0.6c2.3,3,4.4,3.5,5.6,3.4c1.7-10.3-8.4-18.9-8.6-19
						c-0.6-0.5-0.9-1.3-0.8-2c0.1-0.8,0.5-1.5,1.2-1.8c3.3-1.8,9.4-6.4,9.4-6.4c0.6-0.4,1.3-0.6,1.9-0.4c0.7,0.2,1.2,0.6,1.6,1.2
						c1.8,3.3,2.8,3.6,2.8,3.6c1.7-0.5,4.3-8.9,5.3-17.3c0.1-0.9,0.7-1.6,1.6-1.9c0.9-0.3,1.8-0.1,2.4,0.6c1.9,1.9,2.9,2.4,3.3,2.5
						c0.4-0.9,0.8-3.9-0.3-10.7c-0.4-2.5-0.3-5,0.3-7.3c1.3-5,2-10.3,1.9-15.5c-0.4-31.4-26.3-57.1-57.7-57.3c-0.1,0-0.2,0-0.3,0
						c-17.8,0-34.3,8-45.4,21.9c-0.6,0.7-1.6,1.1-2.5,0.8c0,0-4.8-1.3-9.3-0.4c-0.8,0.1-1.5-0.1-2.1-0.6c-9.4-9-20-11.2-25.4-11.7
						c-0.6-0.1-1,0.3-1.1,0.5c-0.1,0.2-0.5,0.6-0.3,1.3c1.5,5.2,6.2,9.1,6.3,9.1c0.9,0.8,1.2,2.1,0.5,3.1s-2,1.4-3.1,0.8
						c-7.6-4.1-15.8-4-16.6-2.7c0.1,0.8,1.7,2.6,3.4,3.9c0.6,0.5,1,1.2,0.9,2c0,0.8-0.4,1.5-1.1,1.9c-25.4,16.5-36.9,37.5-42,52.2
						c-5.5,15.9-5.1,28-5.1,28.1c0,0.6-0.2,1.2-0.6,1.7c-8.6,9.6-8.4,13.7-7.9,14.9c0.6,1.5,2.6,1.8,2.6,1.8
						c0.7,0.1,1.4,0.5,1.8,1.2c0.4,0.7,0.4,1.4,0.1,2.1c-3.3,7.1-3.3,16.8-1.3,21c0.5,1,1.1,1.7,1.6,1.8c0.9,0.2,1.3,0,1.6-0.2
						c1.3-0.8,2-3.3,2.2-4.2c0.2-1,1-1.8,2.1-1.9C-50.6,439.7-50.5,439.7-50.4,439.7z"/>
				</g>
				<g id="XMLID_1031_">
					<g id="XMLID_1050_">
						<path id="XMLID_980_" class="st7" d="M44.5,313.1c-0.7,0.7-1.4,1.2-2.2,1.7s-1.6,1-2.8,1.3l0,0c-0.5,0.1-1-0.2-1.1-0.7
							c0-0.1,0-0.2,0-0.3c0.1-1.2,0.6-2,1.1-2.9c0.5-0.9,1-1.7,1.7-2.4c0.9-1,2.3-1.1,3.3-0.2s1.1,2.3,0.2,3.3
							C44.6,312.9,44.6,313,44.5,313.1L44.5,313.1z"/>
					</g>
					<g id="XMLID_1048_">
						<path id="XMLID_979_" class="st7" d="M60.7,322c-0.2,0.4-0.5,0.7-0.9,1c-0.3,0.3-0.7,0.5-1.1,0.8c-0.8,0.5-1.6,0.9-2.5,1.4
							h-0.1c-0.4,0.2-0.9,0-1.1-0.4c-0.1-0.1-0.1-0.3-0.1-0.4c0.1-1.1,0.4-2,0.7-3c0.2-0.5,0.3-0.9,0.6-1.3c0.2-0.4,0.5-0.8,0.8-1.1
							c1-0.9,2.5-0.7,3.4,0.3C61.1,320.1,61.2,321.1,60.7,322L60.7,322z"/>
					</g>
					<g id="XMLID_1046_">
						<path id="XMLID_978_" class="st7" d="M117.5,404c-0.4-0.3-0.8-0.7-1.2-1c-0.4-0.4-0.8-0.8-1.1-1.2c-0.8-0.8-1.5-1.7-2.3-2.6
							l0,0c-0.2-0.2-0.1-0.4,0-0.6c0.1-0.1,0.2-0.1,0.3-0.1c0.6,0,1.3,0,1.9,0.1c0.6,0.1,1.2,0.2,1.8,0.3s1.2,0.3,1.7,0.5
							c0.6,0.2,1.1,0.4,1.6,0.8c1.1,0.7,1.4,2.2,0.7,3.2c-0.7,1.1-2.2,1.4-3.2,0.7C117.6,404.1,117.6,404.1,117.5,404L117.5,404z"/>
					</g>
					<g id="XMLID_1044_">
						<path id="XMLID_964_" class="st7" d="M110.6,388.5c-0.5,0.4-1,0.6-1.5,0.8c-0.5,0.2-1.1,0.4-1.6,0.6c-1.1,0.3-2.3,0.6-3.6,0.4
							c-0.4,0-0.6-0.4-0.6-0.7c0-0.1,0.1-0.2,0.1-0.3l0,0c0.7-0.9,1.4-1.7,2.2-2.5c0.4-0.4,0.7-0.7,1.1-1.1c0.4-0.3,0.8-0.7,1.1-1
							l0,0c1-0.8,2.5-0.6,3.3,0.5C112,386.3,111.7,387.7,110.6,388.5C110.7,388.5,110.7,388.5,110.6,388.5z"/>
					</g>
					<g id="XMLID_1042_">
						<path id="XMLID_963_" class="st7" d="M-5.3,317.3c0.1,0.1,0.4,0.3,0.5,0.5l0.6,0.5c0.4,0.3,0.9,0.6,1.3,0.9
							c0.9,0.6,1.9,1.2,2.8,1.6c2,1,4,1.7,6.2,2.2c2.2,0.4,4.4,0.5,6.6,0.4c2.2-0.2,4.5-0.7,6.8-1.3l0,0c0.3-0.1,0.7,0.1,0.8,0.4
							c0.1,0.3,0,0.6-0.2,0.7c-2,1.5-4.3,2.5-6.8,3.2s-5.1,0.8-7.7,0.6c-2.6-0.3-5.2-0.9-7.5-2c-1.2-0.5-2.4-1.1-3.4-1.8
							c-0.6-0.3-1.1-0.7-1.6-1.1c-0.3-0.2-0.5-0.4-0.8-0.6c-0.3-0.2-0.5-0.4-0.8-0.7c-0.9-0.9-1-2.4-0.1-3.3
							C-7.8,316.4-6.4,316.4-5.3,317.3L-5.3,317.3z"/>
					</g>
					<g id="XMLID_1040_">
						<path id="XMLID_962_" class="st7" d="M-52.7,442.8c-0.2-0.5-0.3-1-0.4-1.6c-0.1-0.5-0.1-1.1-0.1-1.7c0-0.6,0-1.1,0.1-1.7
							c0.1-0.6,0.2-1.2,0.3-1.8c0-0.2,0.2-0.3,0.4-0.2c0,0,0.1,0,0.1,0.1l0,0c0.5,0.4,0.9,0.8,1.3,1.2c0.4,0.4,0.8,0.9,1.1,1.3
							c0.4,0.4,0.6,0.9,0.9,1.4c0.3,0.5,0.5,0.9,0.6,1.5v0.1c0.3,1.3-0.6,2.5-1.8,2.8C-51.1,444.4-52.2,443.8-52.7,442.8z"/>
					</g>
					<g id="XMLID_1038_">
						<path id="XMLID_960_" class="st7" d="M-42.2,397.2c1.8,1.2,3.6,2.2,5.3,2.8c1.7,0.7,3.3,1,4.9,0.9c0.8,0,1.6-0.2,2.4-0.4
							s1.7-0.5,2.5-0.9c1.8-0.7,3.5-1.7,5.5-2.7l0,0c0.4-0.2,0.9,0,1.1,0.4c0.1,0.2,0.1,0.5,0,0.7c-1,2.1-2.4,4-4.4,5.4l-0.7,0.5
							c-0.3,0.2-0.5,0.3-0.8,0.5c-0.5,0.3-1.1,0.6-1.7,0.8c-1.2,0.5-2.5,0.7-3.9,0.8c-1.3,0-2.7-0.2-3.9-0.6
							c-1.2-0.4-2.4-1.1-3.4-1.8c-2-1.6-3.4-3.5-4-5.9c-0.1-0.3,0.1-0.7,0.4-0.8C-42.6,397.1-42.4,397.1-42.2,397.2L-42.2,397.2z"/>
					</g>
					<g id="XMLID_1036_">
						<path id="XMLID_959_" class="st7" d="M28.9,397.2c1.8,1.2,3.6,2.2,5.3,2.8c1.7,0.7,3.3,1,4.9,0.9c0.8,0,1.6-0.2,2.4-0.4
							c0.8-0.2,1.7-0.5,2.5-0.9c1.7-0.7,3.5-1.7,5.5-2.7l0,0c0.4-0.2,0.9,0,1.1,0.4c0.1,0.2,0.1,0.5,0,0.7c-1,2.1-2.4,4-4.4,5.4
							l-0.7,0.5c-0.3,0.2-0.5,0.3-0.8,0.5c-0.5,0.3-1.1,0.6-1.7,0.8c-1.2,0.5-2.5,0.7-3.9,0.8c-1.3,0-2.7-0.2-3.9-0.6
							s-2.4-1.1-3.4-1.8c-2-1.6-3.4-3.5-4-5.9c-0.1-0.3,0.1-0.7,0.4-0.8C28.5,397.1,28.7,397.1,28.9,397.2L28.9,397.2z"/>
					</g>
					<g id="XMLID_1034_">
						<path id="XMLID_958_" class="st7" d="M-2.5,387.9c-6.1,4.1-15.6,13.3-15.3,30.7c0.1,5.1,1.9,10,5.4,13.6
							c2.9,3,7.2,5.6,13.7,5.6c15.1,0,25.5-6.4,21.9-27.2c-2.3-13.1-9.8-19.8-15.1-23C4.8,385.7,0.7,385.8-2.5,387.9z"/>
					</g>
					<g id="XMLID_1032_">
						<path id="XMLID_957_" class="st7" d="M4.4,430.4c0,1.4-0.1,2.9-0.2,4.4s-0.3,2.9-0.4,4.4l-0.5,4.4c-0.2,1.5-0.3,3-0.7,4.6l0,0
							c-0.1,0.3-0.4,0.6-0.7,0.5c-0.2,0-0.3-0.1-0.4-0.3c-0.9-1.4-1.5-3-2-4.5c-0.4-1.6-0.7-3.2-0.9-4.8c-0.1-1.6-0.1-3.2,0-4.9
							c0.1-0.8,0.2-1.6,0.4-2.4c0.2-0.8,0.4-1.6,0.7-2.4c0.5-1.2,1.9-1.8,3.1-1.4c0.9,0.4,1.5,1.2,1.5,2.2L4.4,430.4z"/>
					</g>
				</g>
				<g id="XMLID_1026_">
					<g id="XMLID_1029_">
						<path id="XMLID_956_" class="st9" d="M58.9,320.5c0,0,8.1-13.7,31.1-13.7c23.3,0,42.2,18.9,42.2,42.2
							c0,16.4-9.3,30.6-22.9,37.6C109.3,386.6,98.2,338.6,58.9,320.5z"/>
					</g>
					<g id="XMLID_1027_">
						<path id="XMLID_955_" class="st7" d="M124.8,325.2c-2.3-2.3-4.6-4.4-7.1-6.2s-5.1-3.4-7.9-4.7c-5.5-2.6-11.3-4.1-17.2-4.4
							c-2.9-0.1-6,0-8.9,0.4c-1.5,0.2-2.9,0.5-4.4,0.8c-1.4,0.3-2.9,0.7-4.2,1.2c-1.4,0.5-2.7,1-4,1.7c-1.3,0.6-2.6,1.4-3.8,2.2
							c-1.2,0.8-2.4,1.7-3.5,2.6c-0.5,0.5-1.1,1-1.6,1.5c-0.3,0.3-0.5,0.5-0.7,0.8l-0.6,0.7l-1-3.3l0,0c6.7,3.1,12.9,7.2,18.5,12
							c5.6,4.8,10.6,10.2,14.9,16.1c4.4,5.9,8.1,12.2,11.2,18.8c1.6,3.3,2.9,6.7,4.2,10.1c0.6,1.7,1.2,3.5,1.7,5.2
							c0.5,1.8,1,3.5,1.4,5.4l-3.6-1.8c0.2-0.1,0.5-0.2,0.7-0.3c0.3-0.1,0.5-0.3,0.8-0.4c0.5-0.3,1.1-0.6,1.6-0.9
							c1.1-0.6,2.2-1.2,3.3-1.8l3.4-2c0.6-0.3,1.1-0.7,1.8-1c0.3-0.2,0.6-0.3,0.9-0.5c0.3-0.2,0.6-0.3,0.9-0.5
							c-0.5,1.3-1.2,2.5-2,3.7c-0.8,1.2-1.7,2.2-2.6,3.3c-1,1-2,1.9-3.1,2.8c-0.6,0.4-1.1,0.8-1.7,1.2c-0.3,0.2-0.6,0.4-0.9,0.6
							l-0.5,0.3c-0.2,0.1-0.3,0.2-0.6,0.3c-1.3,0.6-2.8,0-3.4-1.2c-0.1-0.1-0.1-0.3-0.2-0.4v-0.2c-0.4-1.6-1-3.3-1.5-4.9
							c-0.6-1.7-1.2-3.3-1.8-4.9c-1.2-3.3-2.6-6.5-4.1-9.6c-3-6.3-6.3-12.5-10.3-18.2c-4-5.7-8.5-11-13.8-15.6
							c-5.2-4.6-11.1-8.4-17.3-11.3l0,0c-1.1-0.4-1.7-1.7-1.3-2.9c0-0.1,0.1-0.2,0.1-0.3l0.1-0.2c0.2-0.3,0.3-0.5,0.4-0.7
							c0.1-0.2,0.2-0.4,0.4-0.6c0.3-0.4,0.5-0.7,0.8-1.1c0.5-0.7,1.1-1.4,1.7-2c1.2-1.3,2.5-2.4,3.9-3.4s2.8-2,4.3-2.8
							c1.5-0.8,3.1-1.5,4.7-2.1c1.6-0.6,3.2-1.1,4.9-1.5c1.7-0.4,3.3-0.7,5-0.9c3.4-0.4,6.7-0.5,10.1-0.2c6.8,0.6,13.4,2.8,18.9,6.5
							c2.8,1.8,5.3,4,7.5,6.5C121.6,319.5,123.5,322.3,124.8,325.2z"/>
					</g>
				</g>
			</g>
		</g>
		<path id="XMLID_953_" class="st10" d="M44.4,408.6h24.2c2.8,0,5.1,2.3,5.1,5.1l0,0c0,2.8-2.3,5.1-5.1,5.1H44.4
			c-2.8,0-5.1-2.3-5.1-5.1l0,0C39.3,410.9,41.6,408.6,44.4,408.6z"/>
		<path id="XMLID_1011_" class="st10" d="M-55.3,408.6h24.2c2.8,0,5.1,2.3,5.1,5.1l0,0c0,2.8-2.3,5.1-5.1,5.1h-24.2
			c-2.8,0-5.1-2.3-5.1-5.1l0,0C-60.4,410.9-58.1,408.6-55.3,408.6z"/>
		<path id="XMLID_954_" class="st7" d="M-39.9,402.1c0,0-3,3-8.2-0.2c-5.2-3.2,3.6,9.6,12.4,3.7"/>
		<path id="XMLID_1020_" class="st7" d="M47.3,402.1c0,0,3,3,8.2-0.2c5.2-3.2-3.6,9.6-12.4,3.7"/>
	</g>
</g>
</svg>
