<?xml version="1.0" encoding="utf-8"?>
<!-- Generator: Adobe Illustrator 19.0.0, SVG Export Plug-In . SVG Version: 6.00 Build 0)  -->
<svg version="1.1" id="Camada_1" xmlns="http://www.w3.org/2000/svg" xmlns:xlink="http://www.w3.org/1999/xlink" x="0px" y="0px"
	 viewBox="0 0 627 240" style="enable-background:new 0 0 627 240;" xml:space="preserve">
<style type="text/css">
	.st0{fill:#272727;}
	.st1{fill:#BE5680;}
	.st2{fill:#896B89;}
</style>
<g id="XMLID_14_">
	<path id="XMLID_70_" class="st0" d="M66.1,24.9h5.2v38.3h-5.2V24.9z M68.8,43.2h11.8c1.1,0,2.1-0.3,2.9-0.8s1.5-1.3,2-2.3
		c0.5-1,0.7-2.1,0.7-3.4c0-1.3-0.2-2.5-0.7-3.5c-0.5-1-1.1-1.8-2-2.3S81.7,30,80.5,30H68.8v-5.1h11.6c2.2,0,4.1,0.5,5.8,1.5
		c1.7,1,3,2.3,3.9,4.1c0.9,1.8,1.4,3.8,1.4,6.2c0,2.3-0.5,4.4-1.4,6.1c-0.9,1.8-2.2,3.1-3.9,4.1c-1.7,1-3.6,1.4-5.8,1.4H68.8V43.2z"
		/>
	<path id="XMLID_73_" class="st0" d="M96.6,35.9h5.2v27.3h-5.2V35.9z M109.4,41c-0.7-0.3-1.5-0.4-2.4-0.4c-1.6,0-2.9,0.5-3.8,1.4
		c-0.9,0.9-1.4,2.2-1.4,3.9l-0.5-5.3c0.8-1.6,1.9-2.9,3.1-3.8c1.3-0.9,2.7-1.4,4.3-1.4c1.2,0,2.3,0.2,3.3,0.5c1,0.4,1.8,0.9,2.5,1.6
		l-3.4,4.7C110.6,41.8,110.1,41.3,109.4,41z"/>
	<path id="XMLID_76_" class="st0" d="M122.5,62.2c-1.6-0.9-2.9-2.3-3.7-4.1c-0.9-1.8-1.3-3.9-1.3-6.4v-4.4c0-2.5,0.4-4.6,1.3-6.4
		c0.9-1.8,2.1-3.1,3.7-4c1.6-0.9,3.6-1.4,5.8-1.4c2.3,0,4.2,0.5,5.8,1.4c1.6,0.9,2.9,2.3,3.7,4c0.9,1.8,1.3,3.9,1.3,6.4v4.5
		c0,2.5-0.4,4.6-1.3,6.4c-0.9,1.8-2.1,3.1-3.7,4s-3.6,1.4-5.8,1.4C126.1,63.6,124.1,63.1,122.5,62.2z M132.5,56.7
		c1-1.2,1.5-2.8,1.5-4.9v-4.5c0-2.1-0.5-3.8-1.5-4.9c-1-1.2-2.4-1.7-4.2-1.7c-1.8,0-3.2,0.6-4.2,1.7c-1,1.2-1.5,2.8-1.5,4.9v4.5
		c0,2.1,0.5,3.8,1.5,4.9c1,1.2,2.4,1.8,4.2,1.8C130.1,58.5,131.5,57.9,132.5,56.7z"/>
	<path id="XMLID_79_" class="st0" d="M146.5,35.9h5.2v27.3h-5.2V35.9z M162.2,46.6c0-1.9-0.5-3.4-1.4-4.5c-0.9-1.1-2.2-1.6-3.9-1.6
		c-1.7,0-3,0.5-3.9,1.4c-0.9,0.9-1.4,2.2-1.4,3.9l-0.5-5.3c0.8-1.6,1.9-2.9,3.2-3.8c1.3-0.9,2.8-1.3,4.3-1.3c1.8,0,3.4,0.4,4.7,1.3
		c1.3,0.9,2.3,2.1,3,3.8c0.7,1.7,1,3.7,1,6v16.6h-5.2V46.6z M177.9,46.6c0-1.9-0.5-3.4-1.4-4.5c-1-1.1-2.3-1.6-4.1-1.6
		c-1.6,0-2.8,0.5-3.7,1.5c-0.9,1-1.3,2.5-1.3,4.3l-1-5.3c0.8-1.8,1.9-3.2,3.3-4.2s2.9-1.5,4.5-1.5c1.9,0,3.5,0.4,4.8,1.3
		c1.3,0.9,2.4,2.1,3.1,3.8c0.7,1.7,1.1,3.7,1.1,6v16.6h-5.2V46.6z"/>
	<path id="XMLID_83_" class="st0" d="M195.2,62.2c-1.6-0.9-2.9-2.3-3.7-4.1c-0.9-1.8-1.3-3.9-1.3-6.4v-4.4c0-2.5,0.4-4.6,1.3-6.4
		c0.9-1.8,2.1-3.1,3.7-4c1.6-0.9,3.6-1.4,5.8-1.4c2.3,0,4.2,0.5,5.8,1.4c1.6,0.9,2.9,2.3,3.7,4c0.9,1.8,1.3,3.9,1.3,6.4v4.5
		c0,2.5-0.4,4.6-1.3,6.4c-0.9,1.8-2.1,3.1-3.7,4s-3.6,1.4-5.8,1.4C198.7,63.6,196.8,63.1,195.2,62.2z M205.2,56.7
		c1-1.2,1.5-2.8,1.5-4.9v-4.5c0-2.1-0.5-3.8-1.5-4.9c-1-1.2-2.4-1.7-4.2-1.7c-1.8,0-3.2,0.6-4.2,1.7c-1,1.2-1.5,2.8-1.5,4.9v4.5
		c0,2.1,0.5,3.8,1.5,4.9c1,1.2,2.4,1.8,4.2,1.8C202.8,58.5,204.2,57.9,205.2,56.7z"/>
	<path id="XMLID_86_" class="st0" d="M226.2,63.6c0,0-0.8-0.5-2.5-1.4c-1.7-0.9-3-2.3-3.9-4.1c-0.9-1.8-1.3-3.9-1.3-6.4v-4.5
		c0-2.5,0.4-4.6,1.3-6.3c0.9-1.8,2.2-3.1,3.9-4c1.7-0.9,3.7-1.4,6.1-1.4c1.4,0,2.7,0.2,3.9,0.5c1.2,0.3,2.3,0.8,3.3,1.5
		c1,0.6,1.8,1.4,2.4,2.4l-3.7,3.5c-0.7-0.9-1.6-1.6-2.6-2c-1-0.5-2-0.7-3.1-0.7c-2,0-3.5,0.6-4.6,1.7c-1.1,1.2-1.6,2.8-1.6,4.9v4.5
		c0,2.2,0.5,3.8,1.6,5c1.1,1.2,2.6,1.8,4.6,1.8c1.1,0,2.1-0.3,3.1-0.8c1-0.5,1.9-1.2,2.6-2.2l3.7,3.7c-0.7,0.9-1.5,1.7-2.4,2.3
		c-1,0.6-2,1.1-3.3,1.5c-1.2,0.3-2.5,0.5-3.8,0.5C227.4,63.6,226.2,63.6,226.2,63.6z M224.3,73.8l1.1-3.7c0.8,0.2,1.6,0.4,2.4,0.4
		c0.9,0,1.6-0.1,2.1-0.3c0.5-0.2,0.7-0.6,0.7-1c0-0.4-0.3-0.8-0.9-1c-0.6-0.2-1.5-0.3-2.8-0.3l2.2-3.1c2,0,3.5,0.4,4.5,1.2
		c1,0.8,1.5,2,1.5,3.5c0,1.6-0.5,2.8-1.6,3.6c-1.1,0.8-2.7,1.2-4.9,1.2C226.8,74.3,225.4,74.1,224.3,73.8z M226.4,60.8h4.2v7.1h-4.2
		V60.8z"/>
	<path id="XMLID_90_" class="st0" d="M246.2,61.5c-1.6-1.4-2.4-3.5-2.4-6.4c0-2.7,0.7-4.7,2.2-6.1s3.7-2,6.7-2h7.5l0.4,4.3h-7.8
		c-1.4,0-2.4,0.3-3,0.9c-0.7,0.6-1,1.6-1,2.9c0,1.4,0.4,2.4,1.3,3.1s2.2,1,4,1c2,0,3.4-0.2,4.4-0.7c1-0.4,1.5-1.1,1.5-2.1l0.5,3.8
		c-0.5,0.7-1,1.3-1.7,1.8c-0.7,0.5-1.4,0.8-2.3,1.1s-1.9,0.4-3,0.4C250.2,63.6,247.8,62.9,246.2,61.5z M259.9,45.9
		c0-1.8-0.5-3.2-1.4-4.2c-0.9-1-2.2-1.5-3.9-1.5c-1,0-2.1,0.2-3.1,0.5c-1,0.3-1.9,0.8-2.7,1.4l-3.8-2.7c1-1.2,2.3-2.2,3.9-2.9
		c1.6-0.7,3.4-1,5.4-1c2.2,0,4,0.4,5.6,1.2c1.6,0.8,2.7,2,3.5,3.5c0.8,1.5,1.2,3.3,1.2,5.5v17.6h-4.9V45.9z M256.7,30
		c-0.5-0.2-1.1-0.5-1.6-0.9l-0.3-0.2c-0.1-0.1-0.2-0.1-0.3-0.2c-0.1-0.1-0.2-0.1-0.3-0.2c-0.7-0.5-1.2-0.9-1.6-1.1
		c-0.4-0.2-0.8-0.3-1.1-0.3c-0.6,0-1,0.1-1.3,0.4s-0.4,0.8-0.4,1.4v1.3h-4v-1.2c0-2.2,0.4-3.8,1.3-4.9c0.9-1.1,2.2-1.6,3.9-1.6
		c0.6,0,1.3,0.1,1.8,0.4s1.2,0.6,1.8,1.1l0.2,0.2l0.3,0.2c0.6,0.5,1.1,0.8,1.4,1c0.4,0.2,0.7,0.3,1.1,0.3c0.6,0,1-0.2,1.3-0.5
		c0.3-0.3,0.4-0.8,0.4-1.5v-1.1h4v0.9c0,2.2-0.4,3.9-1.3,5.1c-0.9,1.1-2.1,1.7-3.9,1.7C257.8,30.4,257.2,30.3,256.7,30z"/>
	<path id="XMLID_94_" class="st0" d="M276.8,62.2c-1.6-0.9-2.9-2.3-3.7-4.1c-0.9-1.8-1.3-3.9-1.3-6.4v-4.4c0-2.5,0.4-4.6,1.3-6.4
		c0.9-1.8,2.1-3.1,3.7-4c1.6-0.9,3.6-1.4,5.8-1.4c2.3,0,4.2,0.5,5.8,1.4c1.6,0.9,2.9,2.3,3.7,4c0.9,1.8,1.3,3.9,1.3,6.4v4.5
		c0,2.5-0.4,4.6-1.3,6.4c-0.9,1.8-2.1,3.1-3.7,4s-3.6,1.4-5.8,1.4C280.4,63.6,278.5,63.1,276.8,62.2z M286.9,56.7
		c1-1.2,1.5-2.8,1.5-4.9v-4.5c0-2.1-0.5-3.8-1.5-4.9c-1-1.2-2.4-1.7-4.2-1.7c-1.8,0-3.2,0.6-4.2,1.7c-1,1.2-1.5,2.8-1.5,4.9v4.5
		c0,2.1,0.5,3.8,1.5,4.9c1,1.2,2.4,1.8,4.2,1.8C284.5,58.5,285.9,57.9,286.9,56.7z"/>
	<path id="XMLID_97_" class="st0" d="M318.2,62.4c-1.4-0.9-2.4-2.1-3.1-3.8c-0.7-1.7-1.1-3.7-1.1-6v-6c0-2.4,0.3-4.4,1-6
		c0.7-1.7,1.7-2.9,3-3.8s2.9-1.3,4.8-1.3c1.6,0,3,0.4,4.3,1.3c1.3,0.8,2.3,2,3.1,3.6l-0.5,5.6c0-1.2-0.2-2.1-0.6-3
		c-0.4-0.8-1-1.5-1.8-1.9c-0.8-0.4-1.7-0.6-2.8-0.6c-1.7,0-3,0.6-4,1.7c-0.9,1.1-1.4,2.7-1.4,4.7v5.9c0,2,0.5,3.5,1.4,4.6
		c0.9,1.1,2.3,1.6,4,1.6c1.1,0,2-0.2,2.8-0.7c0.8-0.4,1.4-1.1,1.8-1.9s0.6-1.9,0.6-3l0.4,5.8c-0.5,1.4-1.4,2.5-2.6,3.4
		c-1.2,0.9-2.7,1.4-4.4,1.4C321.2,63.7,319.6,63.2,318.2,62.4z M329.7,24.9h5.2v38.3h-5.2V24.9z"/>
	<path id="XMLID_100_" class="st0" d="M349.9,63.6c0,0-0.9-0.5-2.6-1.4c-1.7-0.9-3-2.3-3.9-4.2c-0.9-1.8-1.4-4-1.4-6.6v-3.1
		c0-2.7,0.4-5,1.3-6.9s2.1-3.4,3.8-4.4c1.7-1,3.6-1.5,6-1.5c2.2,0,4.1,0.6,5.6,1.7c1.6,1.1,2.7,2.8,3.6,4.9c0.8,2.2,1.2,4.7,1.2,7.8
		v1.8h-17.7v-4.3h12.8c-0.2-2.2-0.7-4-1.7-5.2c-1-1.2-2.2-1.9-3.8-1.9c-2,0-3.5,0.7-4.5,2c-1.1,1.3-1.6,3.2-1.6,5.7v3.5
		c0,2.3,0.6,4,1.7,5.2c1.1,1.2,2.8,1.8,4.9,1.8c1,0,2.1-0.2,3.1-0.7c1-0.4,2-1.1,2.8-1.8l3.4,3.5c-1.3,1.3-2.8,2.3-4.4,3
		c-1.6,0.7-3.3,1.1-4.9,1.1C351.1,63.6,349.9,63.6,349.9,63.6z"/>
	<path id="XMLID_102_" class="st0" d="M390.2,63.2H385V24.9h5.2V63.2z"/>
	<path id="XMLID_104_" class="st0" d="M398.8,35.9h5.2v27.3h-5.2V35.9z M414.7,46.6c0-1.9-0.5-3.4-1.4-4.5c-1-1.1-2.3-1.6-4.1-1.6
		c-1.7,0-3,0.5-3.9,1.4c-0.9,0.9-1.4,2.2-1.4,3.9l-0.5-5.3c0.8-1.6,1.9-2.9,3.2-3.8c1.3-0.9,2.8-1.3,4.3-1.3c2.9,0,5.1,1,6.6,2.9
		c1.6,1.9,2.3,4.7,2.3,8.2v16.6h-5.2V46.6z"/>
	<path id="XMLID_107_" class="st0" d="M442.5,35.9h5.4L438,63.2h-3.9l-9.9-27.3h5.4l6.4,19.5L442.5,35.9z"/>
	<path id="XMLID_109_" class="st0" d="M459.5,63.6c0,0-0.9-0.5-2.6-1.4c-1.7-0.9-3-2.3-3.9-4.2c-0.9-1.8-1.4-4-1.4-6.6v-3.1
		c0-2.7,0.4-5,1.3-6.9s2.1-3.4,3.8-4.4c1.7-1,3.6-1.5,6-1.5c2.2,0,4.1,0.6,5.6,1.7c1.6,1.1,2.7,2.8,3.6,4.9c0.8,2.2,1.2,4.7,1.2,7.8
		v1.8h-17.7v-4.3h12.8c-0.2-2.2-0.7-4-1.7-5.2c-1-1.2-2.2-1.9-3.8-1.9c-2,0-3.5,0.7-4.5,2c-1.1,1.3-1.6,3.2-1.6,5.7v3.5
		c0,2.3,0.6,4,1.7,5.2c1.1,1.2,2.8,1.8,4.9,1.8c1,0,2.1-0.2,3.1-0.7c1-0.4,2-1.1,2.8-1.8l3.4,3.5c-1.3,1.3-2.8,2.3-4.4,3
		c-1.6,0.7-3.3,1.1-4.9,1.1C460.7,63.6,459.5,63.6,459.5,63.6z"/>
	<path id="XMLID_111_" class="st0" d="M480.2,35.9h5.2v27.3h-5.2V35.9z M492.9,41c-0.7-0.3-1.5-0.4-2.4-0.4c-1.6,0-2.9,0.5-3.8,1.4
		c-0.9,0.9-1.4,2.2-1.4,3.9l-0.5-5.3c0.8-1.6,1.9-2.9,3.1-3.8c1.3-0.9,2.7-1.4,4.3-1.4c1.2,0,2.3,0.2,3.3,0.5c1,0.4,1.8,0.9,2.5,1.6
		l-3.4,4.7C494.2,41.8,493.6,41.3,492.9,41z"/>
	<path id="XMLID_114_" class="st0" d="M502.3,35.9h5.2v27.3h-5.2V35.9z M518.3,46.6c0-1.9-0.5-3.4-1.4-4.5c-1-1.1-2.3-1.6-4.1-1.6
		c-1.7,0-3,0.5-3.9,1.4c-0.9,0.9-1.4,2.2-1.4,3.9l-0.5-5.3c0.8-1.6,1.9-2.9,3.2-3.8c1.3-0.9,2.8-1.3,4.3-1.3c2.9,0,5.1,1,6.6,2.9
		c1.6,1.9,2.3,4.7,2.3,8.2v16.6h-5.2V46.6z"/>
	<path id="XMLID_117_" class="st0" d="M535.5,62.2c-1.6-0.9-2.9-2.3-3.7-4.1c-0.9-1.8-1.3-3.9-1.3-6.4v-4.4c0-2.5,0.4-4.6,1.3-6.4
		c0.9-1.8,2.1-3.1,3.7-4c1.6-0.9,3.6-1.4,5.8-1.4s4.2,0.5,5.8,1.4c1.6,0.9,2.9,2.3,3.7,4c0.9,1.8,1.3,3.9,1.3,6.4v4.5
		c0,2.5-0.4,4.6-1.3,6.4c-0.9,1.8-2.1,3.1-3.7,4c-1.6,0.9-3.6,1.4-5.8,1.4S537.2,63.1,535.5,62.2z M545.6,56.7
		c1-1.2,1.5-2.8,1.5-4.9v-4.5c0-2.1-0.5-3.8-1.5-4.9s-2.4-1.7-4.2-1.7c-1.8,0-3.2,0.6-4.2,1.7c-1,1.2-1.5,2.8-1.5,4.9v4.5
		c0,2.1,0.5,3.8,1.5,4.9c1,1.2,2.4,1.8,4.2,1.8C543.2,58.5,544.6,57.9,545.6,56.7z"/>
	<path id="XMLID_120_" class="st0" d="M150.3,129.6c-1-0.7-1.8-1.6-2.4-2.9c-0.5-1.3-0.8-2.8-0.8-4.6v-4.6c0-1.8,0.3-3.3,0.8-4.6
		c0.5-1.3,1.3-2.2,2.3-2.9c1-0.7,2.2-1,3.6-1c1.2,0,2.3,0.3,3.2,1c1,0.6,1.8,1.5,2.4,2.7L159,117c0-0.9-0.2-1.6-0.5-2.3
		c-0.3-0.6-0.8-1.1-1.3-1.4c-0.6-0.3-1.3-0.5-2.1-0.5c-1.3,0-2.3,0.4-3,1.3c-0.7,0.8-1.1,2-1.1,3.5v4.5c0,1.5,0.4,2.7,1.1,3.5
		c0.7,0.8,1.7,1.2,3,1.2c0.8,0,1.5-0.2,2.1-0.5c0.6-0.3,1-0.8,1.3-1.5s0.5-1.4,0.5-2.3l0.3,4.4c-0.4,1-1,1.9-2,2.6s-2,1-3.3,1
		C152.5,130.6,151.3,130.2,150.3,129.6z M159,101.1h3.9v29.1H159V101.1z"/>
	<path id="XMLID_123_" class="st0" d="M174.3,130.5c0,0-0.7-0.4-2-1.1c-1.3-0.7-2.3-1.8-3-3.2c-0.7-1.4-1-3.1-1-5.1v-2.3
		c0-2.1,0.3-3.8,1-5.3c0.7-1.5,1.6-2.6,2.9-3.3c1.3-0.8,2.8-1.1,4.5-1.1c1.7,0,3.1,0.4,4.3,1.3c1.2,0.9,2.1,2.1,2.7,3.8
		c0.6,1.6,0.9,3.6,0.9,5.9v1.4h-13.5v-3.3h9.7c-0.1-1.7-0.5-3-1.3-4c-0.7-0.9-1.7-1.4-2.9-1.4c-1.5,0-2.6,0.5-3.5,1.5
		c-0.8,1-1.2,2.4-1.2,4.3v2.6c0,1.7,0.4,3,1.3,4c0.9,0.9,2.1,1.4,3.7,1.4c0.8,0,1.6-0.2,2.4-0.5c0.8-0.3,1.5-0.8,2.1-1.4l2.6,2.7
		c-1,1-2.1,1.8-3.3,2.3c-1.2,0.5-2.5,0.8-3.7,0.8C175.3,130.5,174.3,130.5,174.3,130.5z"/>
	<path id="XMLID_125_" class="st0" d="M195.4,130.5c0,0-0.5-0.1-1.6-0.4c-1-0.2-2-0.6-2.9-1.1s-1.7-1.1-2.5-1.8l2.3-3
		c1.1,0.9,2.2,1.5,3.2,1.9c1.1,0.4,2.1,0.6,3.2,0.6c1.6,0,2.7-0.3,3.5-0.8c0.8-0.5,1.2-1.3,1.2-2.3c0-0.7-0.2-1.2-0.6-1.5
		c-0.4-0.3-1-0.6-1.6-0.7c-0.6-0.1-1.5-0.2-2.7-0.3c-0.1,0-0.2,0-0.3,0s-0.2,0-0.3,0c-0.1,0-0.1,0-0.2,0c-0.1,0-0.1,0-0.2,0
		c-1.3-0.1-2.4-0.3-3.3-0.6c-0.9-0.3-1.6-0.8-2.2-1.6c-0.6-0.8-0.9-1.9-0.9-3.4c0-1.5,0.3-2.7,0.9-3.7c0.6-1,1.4-1.7,2.6-2.2
		c1.1-0.5,2.6-0.7,4.3-0.7c1,0,2,0.1,3,0.3s1.8,0.5,2.7,0.9c0.9,0.4,1.7,0.9,2.5,1.5l-2.4,3c-1-0.7-2-1.2-3-1.5
		c-1-0.3-1.9-0.5-2.8-0.5c-1.3,0-2.3,0.2-3,0.7c-0.7,0.5-1,1.2-1,2.1c0,0.6,0.2,1,0.6,1.3s0.9,0.5,1.4,0.6c0.6,0.1,1.4,0.2,2.5,0.2
		c0.1,0,0.2,0,0.2,0s0.2,0,0.3,0c0,0,0.1,0,0.1,0c0,0,0.1,0,0.1,0c1.4,0.1,2.6,0.3,3.6,0.6c1,0.3,1.8,0.9,2.5,1.7
		c0.7,0.9,1,2.1,1,3.8c0,1.5-0.3,2.7-0.9,3.7c-0.6,1-1.5,1.7-2.8,2.2s-2.8,0.7-4.7,0.7C196,130.5,195.4,130.5,195.4,130.5z"/>
	<path id="XMLID_127_" class="st0" d="M215.9,130.5c0,0-0.6-0.4-1.9-1.1c-1.3-0.7-2.3-1.7-3-3.1c-0.7-1.3-1-3-1-4.9V118
		c0-1.9,0.3-3.5,1-4.8c0.7-1.3,1.7-2.4,3-3.1c1.3-0.7,2.8-1.1,4.7-1.1c1,0,2,0.1,2.9,0.4c0.9,0.3,1.7,0.6,2.5,1.1
		c0.7,0.5,1.3,1.1,1.8,1.8l-2.8,2.6c-0.6-0.7-1.2-1.2-2-1.5c-0.8-0.4-1.5-0.5-2.4-0.5c-1.5,0-2.7,0.4-3.5,1.3
		c-0.8,0.9-1.3,2.1-1.3,3.7v3.4c0,1.6,0.4,2.9,1.2,3.8c0.8,0.9,2,1.3,3.5,1.3c0.8,0,1.6-0.2,2.4-0.6c0.8-0.4,1.4-0.9,2-1.6l2.8,2.8
		c-0.5,0.7-1.1,1.3-1.8,1.8c-0.7,0.5-1.6,0.9-2.5,1.1c-0.9,0.3-1.9,0.4-2.9,0.4C216.8,130.5,215.9,130.5,215.9,130.5z"/>
	<path id="XMLID_129_" class="st0" d="M233.4,129.4c-1.2-0.7-2.2-1.7-2.8-3.1s-1-3-1-4.9v-3.4c0-1.9,0.3-3.5,1-4.8
		c0.6-1.3,1.6-2.4,2.8-3.1c1.2-0.7,2.7-1.1,4.4-1.1s3.2,0.4,4.4,1.1c1.2,0.7,2.2,1.7,2.8,3.1c0.6,1.3,1,3,1,4.8v3.4
		c0,1.9-0.3,3.5-1,4.9c-0.6,1.3-1.6,2.4-2.8,3.1c-1.2,0.7-2.7,1.1-4.4,1.1S234.6,130.1,233.4,129.4z M241,125.3
		c0.8-0.9,1.1-2.1,1.1-3.8v-3.4c0-1.6-0.4-2.9-1.1-3.7c-0.8-0.9-1.8-1.3-3.2-1.3s-2.4,0.4-3.2,1.3c-0.8,0.9-1.1,2.1-1.1,3.7v3.4
		c0,1.6,0.4,2.9,1.1,3.8c0.8,0.9,1.8,1.3,3.2,1.3S240.3,126.2,241,125.3z"/>
	<path id="XMLID_132_" class="st0" d="M251.7,109.4h3.9v20.8h-3.9V109.4z M263.8,117.6c0-1.5-0.4-2.6-1.1-3.4s-1.8-1.2-3.1-1.2
		c-1.3,0-2.3,0.4-3,1.1c-0.7,0.7-1,1.7-1,3l-0.4-4c0.6-1.3,1.4-2.2,2.4-2.9c1-0.7,2.1-1,3.3-1c2.2,0,3.8,0.7,5,2.2
		c1.2,1.5,1.8,3.6,1.8,6.3v12.6h-3.9V117.6z"/>
	<path id="XMLID_135_" class="st0" d="M272.2,109.4h9v3.7h-9V109.4z M275.4,128.9c-0.8-0.9-1.1-2.3-1.1-4.1v-21.4h3.9v21.5
		c0,0.5,0.1,0.9,0.3,1.2c0.2,0.3,0.5,0.4,0.8,0.4h1.9v3.9h-2.3C277.3,130.3,276.1,129.8,275.4,128.9z"/>
	<path id="XMLID_138_" class="st0" d="M289.8,129.4c-1.2-0.7-2.2-1.7-2.8-3.1s-1-3-1-4.9v-3.4c0-1.9,0.3-3.5,1-4.8
		c0.6-1.3,1.6-2.4,2.8-3.1c1.2-0.7,2.7-1.1,4.4-1.1s3.2,0.4,4.4,1.1c1.2,0.7,2.2,1.7,2.8,3.1c0.6,1.3,1,3,1,4.8v3.4
		c0,1.9-0.3,3.5-1,4.9c-0.6,1.3-1.6,2.4-2.8,3.1c-1.2,0.7-2.7,1.1-4.4,1.1S291,130.1,289.8,129.4z M297.4,125.3
		c0.8-0.9,1.1-2.1,1.1-3.8v-3.4c0-1.6-0.4-2.9-1.1-3.7c-0.8-0.9-1.8-1.3-3.2-1.3s-2.4,0.4-3.2,1.3c-0.8,0.9-1.1,2.1-1.1,3.7v3.4
		c0,1.6,0.4,2.9,1.1,3.8c0.8,0.9,1.8,1.3,3.2,1.3S296.7,126.2,297.4,125.3z"/>
	<path id="XMLID_141_" class="st0" d="M313.4,130.5c0,0-0.5-0.1-1.6-0.4c-1-0.2-2-0.6-2.9-1.1s-1.7-1.1-2.5-1.8l2.3-3
		c1.1,0.9,2.2,1.5,3.2,1.9c1.1,0.4,2.1,0.6,3.2,0.6c1.6,0,2.7-0.3,3.5-0.8c0.8-0.5,1.2-1.3,1.2-2.3c0-0.7-0.2-1.2-0.6-1.5
		c-0.4-0.3-1-0.6-1.6-0.7c-0.6-0.1-1.5-0.2-2.7-0.3c-0.1,0-0.2,0-0.3,0s-0.2,0-0.3,0c-0.1,0-0.1,0-0.2,0c-0.1,0-0.1,0-0.2,0
		c-1.3-0.1-2.4-0.3-3.3-0.6c-0.9-0.3-1.6-0.8-2.2-1.6c-0.6-0.8-0.9-1.9-0.9-3.4c0-1.5,0.3-2.7,0.9-3.7c0.6-1,1.4-1.7,2.6-2.2
		c1.1-0.5,2.6-0.7,4.3-0.7c1,0,2,0.1,3,0.3s1.8,0.5,2.7,0.9c0.9,0.4,1.7,0.9,2.5,1.5l-2.4,3c-1-0.7-2-1.2-3-1.5
		c-1-0.3-1.9-0.5-2.8-0.5c-1.3,0-2.3,0.2-3,0.7c-0.7,0.5-1,1.2-1,2.1c0,0.6,0.2,1,0.6,1.3s0.9,0.5,1.4,0.6c0.6,0.1,1.4,0.2,2.5,0.2
		c0.1,0,0.2,0,0.2,0s0.2,0,0.3,0c0,0,0.1,0,0.1,0c0,0,0.1,0,0.1,0c1.4,0.1,2.6,0.3,3.6,0.6c1,0.3,1.8,0.9,2.5,1.7
		c0.7,0.9,1,2.1,1,3.8c0,1.5-0.3,2.7-0.9,3.7c-0.6,1-1.5,1.7-2.8,2.2s-2.8,0.7-4.7,0.7C314,130.5,313.4,130.5,313.4,130.5z"/>
	<path id="XMLID_143_" class="st0" d="M341.7,129.6c-1-0.7-1.8-1.6-2.4-2.9c-0.5-1.3-0.8-2.8-0.8-4.6v-4.6c0-1.8,0.3-3.3,0.8-4.6
		c0.5-1.3,1.3-2.2,2.3-2.9c1-0.7,2.2-1,3.6-1c1.2,0,2.3,0.3,3.2,1s1.8,1.5,2.4,2.7l-0.4,4.2c0-0.9-0.2-1.6-0.5-2.3
		c-0.3-0.6-0.8-1.1-1.3-1.4c-0.6-0.3-1.3-0.5-2.1-0.5c-1.3,0-2.3,0.4-3,1.3s-1.1,2-1.1,3.5v4.5c0,1.5,0.4,2.7,1.1,3.5
		c0.7,0.8,1.7,1.2,3,1.2c0.8,0,1.5-0.2,2.1-0.5c0.6-0.3,1-0.8,1.3-1.5c0.3-0.6,0.5-1.4,0.5-2.3l0.3,4.4c-0.4,1-1,1.9-2,2.6
		s-2,1-3.3,1C344,130.6,342.7,130.2,341.7,129.6z M350.5,101.1h3.9v29.1h-3.9V101.1z"/>
	<path id="XMLID_146_" class="st0" d="M365.8,130.5c0,0-0.7-0.4-2-1.1s-2.3-1.8-3-3.2c-0.7-1.4-1-3.1-1-5.1v-2.3
		c0-2.1,0.3-3.8,1-5.3c0.7-1.5,1.6-2.6,2.9-3.3c1.3-0.8,2.8-1.1,4.5-1.1c1.7,0,3.1,0.4,4.3,1.3c1.2,0.9,2.1,2.1,2.7,3.8
		c0.6,1.6,0.9,3.6,0.9,5.9v1.4h-13.5v-3.3h9.7c-0.1-1.7-0.5-3-1.3-4c-0.7-0.9-1.7-1.4-2.9-1.4c-1.5,0-2.6,0.5-3.5,1.5
		c-0.8,1-1.2,2.4-1.2,4.3v2.6c0,1.7,0.4,3,1.3,4c0.9,0.9,2.1,1.4,3.7,1.4c0.8,0,1.6-0.2,2.4-0.5c0.8-0.3,1.5-0.8,2.1-1.4l2.6,2.7
		c-1,1-2.1,1.8-3.3,2.3c-1.2,0.5-2.5,0.8-3.7,0.8C366.7,130.5,365.8,130.5,365.8,130.5z"/>
	<path id="XMLID_148_" class="st0" d="M393,128.9c-1.2-1.1-1.8-2.7-1.8-4.8c0-2.1,0.6-3.6,1.7-4.6c1.1-1,2.8-1.5,5.1-1.5h5.7
		l0.3,3.3h-5.9c-1,0-1.8,0.2-2.3,0.7c-0.5,0.5-0.8,1.2-0.8,2.2c0,1.1,0.3,1.8,1,2.3c0.7,0.5,1.7,0.8,3.1,0.8c1.5,0,2.6-0.2,3.4-0.5
		c0.7-0.3,1.1-0.9,1.1-1.6l0.4,2.9c-0.3,0.6-0.8,1-1.3,1.4s-1.1,0.6-1.8,0.8c-0.7,0.2-1.4,0.3-2.3,0.3
		C396,130.5,394.2,130,393,128.9z M403.4,117c0-1.4-0.4-2.4-1-3.2c-0.7-0.8-1.7-1.1-3-1.1c-0.8,0-1.6,0.1-2.3,0.4
		c-0.8,0.3-1.4,0.6-2,1.1l-2.9-2c0.8-0.9,1.8-1.7,3-2.2c1.2-0.5,2.6-0.8,4.1-0.8c1.7,0,3.1,0.3,4.3,0.9c1.2,0.6,2.1,1.5,2.7,2.6
		c0.6,1.2,0.9,2.5,0.9,4.2v13.4h-3.7V117z"/>
	<path id="XMLID_151_" class="st0" d="M411.6,109.4h9v3.7h-9V109.4z M414.8,128.9c-0.8-0.9-1.1-2.3-1.1-4.1v-21.4h3.9v21.5
		c0,0.5,0.1,0.9,0.3,1.2c0.2,0.3,0.5,0.4,0.8,0.4h1.9v3.9h-2.3C416.7,130.3,415.5,129.8,414.8,128.9z"/>
	<path id="XMLID_154_" class="st0" d="M431.4,130.5c0,0-0.7-0.4-2-1.1s-2.3-1.8-3-3.2c-0.7-1.4-1-3.1-1-5.1v-2.3
		c0-2.1,0.3-3.8,1-5.3c0.7-1.5,1.6-2.6,2.9-3.3c1.3-0.8,2.8-1.1,4.5-1.1c1.7,0,3.1,0.4,4.3,1.3c1.2,0.9,2.1,2.1,2.7,3.8
		c0.6,1.6,0.9,3.6,0.9,5.9v1.4h-13.5v-3.3h9.7c-0.1-1.7-0.5-3-1.3-4c-0.7-0.9-1.7-1.4-2.9-1.4c-1.5,0-2.6,0.5-3.5,1.5
		c-0.8,1-1.2,2.4-1.2,4.3v2.6c0,1.7,0.4,3,1.3,4c0.9,0.9,2.1,1.4,3.7,1.4c0.8,0,1.6-0.2,2.4-0.5c0.8-0.3,1.5-0.8,2.1-1.4l2.6,2.7
		c-1,1-2.1,1.8-3.3,2.3c-1.2,0.5-2.5,0.8-3.7,0.8C432.3,130.5,431.4,130.5,431.4,130.5z M431.5,103.4l5.5-7.1l2.8,2.4l-5.9,6.7
		L431.5,103.4z"/>
	<path id="XMLID_157_" class="st1" d="M281.2,171.5h-22.3l-0.6,7.8c2.9-2.1,6.1-3.1,9.6-3.1c4.6,0,8.7,1.6,12.1,4.9
		c3.5,3.3,5.2,7.7,5.2,13.2c0,5.8-2,10.5-6,14.2c-4,3.6-9.2,5.5-15.4,5.5c-5.5,0-10.2-1.5-14.2-4.5c-4-3-6.4-7.2-7.4-12.5l13.7-1.7
		c0.9,4,3.4,6,7.4,6c2.1,0,3.7-0.6,4.8-1.9c1.2-1.3,1.7-2.9,1.7-4.7c0-2.1-0.7-3.8-2-4.9c-1.3-1.2-2.9-1.8-4.7-1.8
		c-2.7,0-4.8,1.2-6.2,3.5l-12.2-1.8l2.3-31.8h35.5L281.2,171.5z"/>
	<path id="XMLID_159_" class="st1" d="M310.4,214c-6.4,0-11.5-2.6-15.2-7.9s-5.6-12.2-5.6-20.7c0-8.8,1.9-15.7,5.8-20.8
		c3.8-5.1,9-7.6,15.4-7.6c6.7,0,11.9,2.7,15.5,8.1c3.6,5.4,5.4,12.3,5.4,20.8c0,8.6-1.9,15.4-5.8,20.5
		C321.9,211.5,316.8,214,310.4,214z M310.6,202.3c2.2,0,3.7-1.5,4.5-4.4c0.8-3,1.1-7,1.1-12.1c0-7.1-0.5-11.7-1.5-13.8
		c-1-2.2-2.4-3.2-4.1-3.2c-2.1,0-3.5,1.4-4.3,4.3c-0.8,2.9-1.2,6.8-1.2,11.8c0,6.8,0.4,11.4,1.2,13.9
		C307.1,201.1,308.5,202.3,310.6,202.3z"/>
	<path id="XMLID_162_" class="st1" d="M347.1,185.9c-3.3,0-5.9-1.3-7.9-3.9s-2.9-6.1-2.9-10.4c0-4.4,1-7.9,3-10.4
		c2-2.5,4.6-3.8,7.9-3.8c3.4,0,6.1,1.3,8,4c1.9,2.7,2.8,6.2,2.8,10.4c0,4.3-1,7.7-3,10.3C353,184.7,350.4,185.9,347.1,185.9z
		 M382.1,157.9l-32.3,55.3h-7.4l32.6-55.3H382.1z M347.1,179.9c1.8,0,2.7-2.7,2.7-8.1c0-2.5-0.2-4.5-0.5-6s-1.1-2.3-2.2-2.3
		c-1.8,0-2.7,2.6-2.7,7.8c0,3.2,0.2,5.5,0.6,6.7C345.4,179.3,346.1,179.9,347.1,179.9z M377.4,213.6c-3.3,0-5.9-1.3-7.8-3.9
		c-1.9-2.6-2.9-6.1-2.9-10.4c0-4.4,1-7.9,3-10.4c2-2.5,4.6-3.8,7.9-3.8c3.2,0,5.8,1.3,7.8,3.8s3,6.1,3,10.7c0,4.3-1,7.7-3,10.2
		C383.3,212.3,380.7,213.6,377.4,213.6z M377.5,207.6c1.9,0,2.8-2.7,2.8-8.1c0-2.5-0.2-4.5-0.5-6c-0.3-1.5-1.1-2.3-2.2-2.3
		c-1.8,0-2.7,2.6-2.7,7.8c0,3.3,0.2,5.6,0.6,6.8C375.7,206.9,376.4,207.6,377.5,207.6z"/>
</g>
<path id="XMLID_54_" class="st2" d="M207.1,185.1H67.2c-1.5,0-2.7-1.2-2.7-2.7v0c0-1.5,1.2-2.7,2.7-2.7h139.9c1.5,0,2.7,1.2,2.7,2.7
	v0C209.8,183.9,208.6,185.1,207.1,185.1z"/>
<path id="XMLID_69_" class="st2" d="M559.4,185.1H419.5c-1.5,0-2.7-1.2-2.7-2.7v0c0-1.5,1.2-2.7,2.7-2.7h139.9
	c1.5,0,2.7,1.2,2.7,2.7v0C562.1,183.9,560.9,185.1,559.4,185.1z"/>
</svg>
